<?xml version="1.0" standalone="no"?>
<!DOCTYPE svg PUBLIC "-//W3C//DTD SVG 20010904//EN"
 "http://www.w3.org/TR/2001/REC-SVG-20010904/DTD/svg10.dtd">
<svg version="1.0" xmlns="http://www.w3.org/2000/svg"
 width="648.000000pt" height="1108.000000pt" viewBox="0 0 648.000000 1108.000000"
 preserveAspectRatio="xMidYMid meet">
<metadata>
Created by potrace 1.16, written by Peter Selinger 2001-2019
</metadata>
<g transform="translate(0.000000,1108.000000) scale(0.100000,-0.100000)"
fill="#000000" stroke="none">
<path d="M646 11048 c31 -33 582 -662 751 -857 51 -58 93 -109 93 -113 0 -6
-94 -125 -110 -138 -3 -3 -86 -97 -185 -210 -99 -113 -215 -246 -260 -295 -44
-50 -107 -122 -140 -160 -33 -38 -80 -92 -105 -120 -25 -28 -115 -132 -200
-230 -85 -98 -230 -264 -322 -369 l-167 -191 -1 -713 0 -712 82 92 c161 181
304 344 347 393 24 28 388 444 809 925 421 481 811 927 866 990 56 63 115 131
132 150 142 159 394 448 417 477 21 28 27 47 27 85 0 27 -5 58 -11 69 -6 11
-74 93 -152 183 -78 89 -164 188 -192 221 -27 32 -88 102 -135 155 -47 53
-143 165 -215 248 l-130 150 -614 1 -615 1 30 -32z"/>
<path d="M3500 11075 c0 -3 84 -103 186 -223 213 -249 321 -375 416 -488 36
-43 114 -135 172 -204 58 -69 106 -128 106 -132 0 -7 -210 -253 -402 -469 -13
-15 -77 -89 -143 -165 -66 -76 -210 -242 -320 -369 -111 -126 -275 -316 -365
-421 -316 -366 -486 -561 -884 -1014 -51 -58 -193 -220 -316 -360 -123 -140
-230 -261 -238 -269 -36 -37 -42 -117 -13 -165 25 -40 55 -62 166 -121 50 -26
119 -64 155 -83 243 -132 267 -142 331 -142 92 0 145 28 219 113 80 93 149
171 286 325 106 118 111 126 104 156 -5 17 -11 58 -13 91 l-6 60 14 -50 c7
-27 14 -42 14 -33 1 25 22 33 37 14 10 -15 13 -12 19 26 4 24 11 48 16 53 10
13 0 29 -23 38 -10 3 -18 13 -18 22 0 12 -4 11 -21 -6 -11 -11 -24 -30 -30
-42 -7 -17 -8 -15 -3 12 10 56 54 83 96 59 13 -7 28 -12 33 -13 6 0 14 -10 20
-22 5 -13 14 -23 18 -23 5 0 7 93 4 207 -4 191 -2 211 16 253 11 25 28 57 38
72 11 14 19 40 19 57 0 17 5 31 11 31 6 0 8 9 4 20 -4 12 -2 26 3 33 6 7 16
31 22 54 8 25 20 43 31 46 12 3 19 14 19 30 0 13 9 32 20 42 11 10 20 28 20
41 0 15 13 33 38 51 20 15 40 31 43 35 20 28 77 58 110 58 21 0 40 4 43 9 6 9
208 28 256 24 14 -1 63 -5 110 -9 47 -3 93 -11 104 -16 20 -11 179 -69 184
-68 1 1 17 -2 34 -5 43 -10 97 -41 120 -70 10 -13 37 -33 61 -44 58 -28 87
-57 87 -86 0 -13 4 -25 9 -27 10 -4 22 -88 11 -88 -13 0 -19 -39 -10 -68 5
-15 16 -54 26 -87 9 -33 25 -71 35 -84 17 -21 19 -43 18 -199 0 -97 -5 -184
-10 -193 -5 -10 -11 -33 -13 -50 -2 -18 -11 -36 -20 -41 -9 -5 -16 -18 -16
-28 0 -22 -16 -27 -23 -7 -9 24 -30 -49 -31 -110 -1 -51 -3 -59 -15 -50 -11
10 -12 1 -6 -51 4 -35 3 -62 -2 -62 -15 0 -43 -57 -43 -89 0 -17 -4 -31 -10
-31 -5 0 -10 -12 -10 -27 0 -24 -1 -25 -13 -9 -12 17 -14 17 -28 0 -7 -9 -14
-36 -14 -58 0 -37 -4 -45 -34 -65 -29 -19 -38 -21 -57 -11 -26 14 -46 6 -37
-15 3 -10 -1 -15 -15 -15 -22 0 -47 -24 -38 -39 3 -5 -4 -7 -16 -4 -21 4 -22
3 -6 -10 16 -13 17 -17 3 -45 -9 -16 -23 -33 -32 -37 -15 -5 -15 -7 -3 -15 13
-8 12 -10 -2 -10 -10 0 -23 -10 -29 -22 -10 -19 -66 -77 -101 -104 -7 -6 -19
-9 -26 -6 -6 2 -12 -5 -12 -15 0 -15 -2 -16 -10 -3 -8 13 -10 13 -10 -2 0 -16
-55 -36 -67 -24 -4 3 -1 6 5 6 7 0 12 9 12 19 0 11 6 22 13 24 9 4 8 6 -2 6
-8 1 -19 -5 -25 -13 -21 -28 -155 -26 -149 2 2 7 -10 12 -28 12 -47 0 -65 15
-79 65 -13 48 -49 82 -51 48 0 -16 -1 -15 -8 2 -5 12 -4 26 2 33 8 11 7 16 -6
23 -9 6 -17 17 -17 26 0 9 -12 27 -26 40 -20 18 -24 30 -20 48 5 18 2 25 -8
25 -30 0 -39 -57 -14 -88 24 -28 -3 -23 -31 7 -16 17 -38 31 -49 31 -12 0 -28
9 -36 21 -8 12 -19 18 -26 14 -7 -4 -9 1 -7 17 2 12 2 17 0 11 -8 -24 -23 -13
-23 18 0 28 -1 29 -16 15 -19 -20 -25 -20 -18 -1 4 8 1 15 -5 15 -13 0 -15
-26 -2 -34 4 -3 14 -27 21 -53 7 -27 21 -59 30 -73 9 -14 29 -50 43 -80 14
-30 37 -70 51 -89 14 -19 26 -41 26 -47 0 -7 6 -17 13 -21 14 -9 35 -41 43
-65 4 -10 10 -18 14 -18 4 0 11 -11 14 -24 3 -14 19 -30 34 -37 16 -7 33 -22
38 -33 6 -13 16 -20 29 -18 20 4 48 4 195 3 94 -1 157 -10 140 -21 -11 -7 -10
-12 3 -25 21 -20 21 -29 2 -45 -8 -7 -15 -18 -15 -24 0 -7 -11 -23 -25 -36
-14 -13 -25 -29 -25 -36 0 -7 -5 -14 -12 -16 -23 -8 14 -34 42 -30 15 2 42 -5
62 -18 30 -17 36 -27 36 -51 -1 -23 -7 -33 -26 -40 -13 -5 -37 -18 -51 -29
-17 -12 -48 -20 -86 -22 -46 -2 -59 -7 -63 -21 -4 -14 -11 -17 -32 -12 -35 8
-50 -13 -24 -32 19 -14 18 -14 -3 -31 -21 -17 -21 -17 -3 -52 10 -19 24 -45
29 -57 7 -16 19 -23 39 -23 20 0 32 -7 39 -21 8 -19 17 -22 69 -21 53 0 61 3
79 28 11 15 30 38 43 50 12 12 22 26 22 31 0 6 7 16 15 23 8 7 15 21 15 32 0
10 7 21 15 24 8 4 15 12 15 20 0 27 24 65 37 60 8 -4 11 -1 8 5 -4 6 0 16 10
23 15 11 15 14 -5 39 -19 24 -20 31 -10 62 7 20 25 45 40 57 16 12 26 26 23
35 -3 7 1 21 9 31 9 9 18 29 22 44 3 15 22 43 41 62 24 24 35 45 35 65 0 33
15 42 48 30 27 -10 29 -29 3 -29 -22 0 -37 -16 -20 -22 8 -3 8 -14 1 -41 -6
-20 -7 -37 -2 -37 16 0 20 -33 5 -50 -8 -9 -15 -22 -15 -29 0 -7 -4 -9 -10 -6
-5 3 -10 -2 -10 -12 0 -11 -5 -24 -12 -31 -9 -9 -8 -12 6 -12 12 0 16 -5 12
-15 -3 -8 0 -15 6 -15 6 0 9 -2 6 -5 -8 -9 -38 6 -32 16 8 13 -8 10 -29 -5
-16 -13 -16 -15 -2 -30 14 -14 14 -16 -10 -22 -14 -3 -25 -12 -25 -20 0 -8 -7
-14 -15 -14 -10 0 -12 -6 -8 -17 6 -16 5 -17 -12 -3 -17 14 -18 13 -11 -25 9
-46 9 -44 7 -68 0 -10 -5 -16 -10 -13 -12 8 -22 -19 -27 -69 -3 -21 -8 -41
-13 -45 -5 -3 -15 -25 -22 -48 -8 -27 -21 -47 -33 -53 -12 -4 -39 -22 -61 -38
-93 -70 -78 -66 -168 -51 -90 14 -105 23 -251 140 -53 43 -100 89 -89 90 6 0
11 9 10 19 0 11 -5 17 -9 15 -7 -5 -12 10 -9 29 0 4 -6 7 -14 7 -8 0 -15 6
-15 14 0 8 -7 16 -15 20 -9 3 -15 18 -15 34 0 16 -12 47 -28 68 -38 54 -54 92
-41 100 7 4 5 12 -4 22 -8 10 -18 42 -22 72 -4 30 -12 61 -18 68 -5 7 -11 34
-13 60 -1 26 -5 55 -9 64 -4 9 -4 21 -1 27 4 5 2 13 -4 16 -8 5 -7 11 1 22 10
11 10 16 1 22 -21 13 -32 72 -32 170 l0 93 -74 -4 c-62 -3 -79 -7 -100 -27
-28 -26 -66 -117 -66 -156 0 -13 -6 -28 -13 -32 -21 -13 -73 -85 -100 -139
-18 -36 -35 -55 -57 -64 -18 -7 -49 -37 -71 -66 -24 -33 -58 -63 -89 -80 -52
-28 -68 -54 -55 -93 5 -18 0 -24 -32 -37 -21 -8 -51 -21 -68 -29 -57 -26 -284
-115 -293 -115 -43 0 -131 -46 -227 -119 -164 -125 -223 -181 -236 -220 -7
-19 -31 -78 -55 -132 -51 -115 -113 -299 -143 -424 -12 -49 -26 -103 -31 -120
-21 -74 -51 -312 -53 -430 -6 -344 25 -1060 53 -1230 5 -33 10 -94 10 -135 1
-41 8 -93 16 -115 21 -56 43 -130 59 -202 8 -35 19 -71 24 -80 18 -34 109
-249 150 -353 22 -58 59 -132 81 -164 22 -33 42 -69 44 -80 21 -109 32 -149
58 -201 16 -33 36 -68 45 -77 13 -14 14 -32 9 -95 -14 -174 -26 -861 -16 -907
7 -34 6 -60 -5 -108 -19 -81 -19 -138 1 -208 16 -57 16 -58 -11 -109 -14 -29
-30 -63 -35 -77 l-10 -24 1945 0 1944 0 -90 139 c-49 77 -89 144 -89 150 0 6
11 29 25 51 14 23 28 55 31 73 3 18 13 54 21 81 18 57 15 97 -21 291 -29 157
-50 236 -108 409 -31 94 -41 144 -49 235 -8 104 -7 118 8 138 64 80 208 277
258 353 114 173 137 214 181 324 25 61 49 120 54 131 43 95 55 168 85 500 8
94 17 186 20 205 18 119 35 613 30 875 -6 328 -11 414 -30 500 -55 246 -68
293 -130 475 -17 52 -40 126 -50 163 -16 61 -22 70 -54 87 -20 10 -61 44 -91
75 -30 31 -71 66 -90 77 -19 12 -88 54 -152 95 -113 70 -263 153 -279 153 -4
0 -20 5 -34 10 l-27 10 26 30 c22 27 25 39 25 112 0 96 -22 148 -73 179 -18
10 -47 37 -65 60 -23 28 -55 51 -109 75 -87 40 -269 128 -445 216 -140 70
-171 73 -173 18 -2 -77 -5 -95 -12 -85 -10 15 -37 13 -38 -2 -1 -7 -2 -18 -3
-25 -1 -7 -9 -4 -21 7 -15 14 -18 26 -14 54 3 20 8 38 10 40 2 2 -1 11 -8 18
-7 9 -8 17 -2 21 5 4 9 14 9 22 0 8 6 14 13 12 8 -1 11 2 7 7 -7 13 22 152 35
165 5 5 10 16 10 23 0 7 9 32 19 56 19 40 46 148 42 164 -1 4 15 10 35 13 21
3 40 11 42 19 3 10 -1 12 -16 9 -25 -7 -29 5 -22 81 5 54 6 56 33 54 l28 -2
-7 60 c-6 51 -4 59 10 59 21 0 20 6 -4 38 -23 28 -14 48 18 38 15 -5 21 -19
26 -67 6 -52 4 -67 -18 -116 -30 -64 -32 -75 -11 -67 8 4 15 14 15 23 0 14 2
14 10 1 7 -11 10 -8 10 16 0 17 12 47 29 70 32 43 62 135 57 174 -9 62 -20 74
-70 75 -28 0 -46 -4 -46 -11 0 -18 -27 -37 -35 -24 -3 5 7 22 23 38 25 23 30
39 41 112 6 47 15 108 20 135 19 102 -9 587 -34 615 -23 26 -19 41 10 34 14
-3 25 -2 25 3 0 16 -49 76 -103 128 -29 27 -70 73 -90 101 -35 48 -88 101
-157 152 l-30 24 39 46 c35 42 687 789 831 952 32 36 107 121 167 190 61 69
120 134 133 145 32 29 60 89 60 130 0 34 -31 109 -48 117 -7 3 -125 139 -232
268 -25 30 -61 73 -81 95 -33 37 -320 379 -437 521 l-53 64 -595 0 c-326 0
-594 -2 -594 -5z m28 -5651 c16 -11 22 -25 22 -52 0 -68 62 -299 90 -337 4 -5
11 -21 15 -35 8 -30 131 -374 147 -410 11 -26 45 -130 79 -240 11 -36 26 -81
34 -100 8 -19 30 -78 51 -130 35 -92 98 -210 112 -210 4 0 5 116 3 258 -10
620 1 1024 30 1098 5 16 17 24 32 24 23 0 23 0 14 -87 -13 -133 -15 -548 -4
-722 8 -110 7 -228 -2 -417 -13 -268 -10 -304 23 -304 23 0 77 -70 74 -93 -5
-34 -52 -35 -74 -3 -9 14 -20 26 -25 26 -14 0 -11 -104 6 -204 44 -263 55
-351 55 -431 0 -49 5 -103 12 -121 20 -56 -21 -85 -62 -44 -22 22 -29 104 -9
115 20 13 -1 218 -45 447 -9 42 -16 131 -17 196 -1 93 -5 125 -17 145 -10 14
-33 49 -54 78 -89 131 -132 237 -313 769 -53 157 -101 290 -105 295 -10 12
-67 170 -105 290 -15 50 -34 102 -41 117 -18 35 -18 57 3 80 20 22 42 23 71 2z
m-533 -918 c-169 -81 -240 -116 -295 -146 -73 -40 -113 -47 -145 -26 -20 13
-25 25 -25 59 0 37 31 127 44 127 2 0 2 -17 -1 -38 -6 -46 14 -72 56 -72 24 0
116 27 166 50 35 15 259 88 275 89 8 0 -25 -19 -75 -43z m1440 -245 c-31 -5
-39 -10 -37 -23 2 -10 -2 -18 -8 -18 -5 0 -10 -11 -10 -25 0 -30 20 -33 27 -5
3 11 9 20 13 20 15 0 31 -30 28 -52 -2 -17 -10 -23 -28 -23 -15 0 -24 5 -22
13 1 6 -2 12 -8 12 -14 0 -13 -67 1 -76 7 -4 16 1 21 10 9 16 38 23 38 8 0 -5
-13 -22 -30 -38 -32 -31 -39 -50 -16 -41 10 4 13 1 9 -9 -6 -17 8 -19 25 -2
10 10 16 9 29 -4 14 -14 14 -20 3 -33 -10 -13 -30 -15 -98 -13 -79 3 -85 5
-88 25 -4 23 17 45 24 25 2 -7 11 -12 19 -12 9 0 13 6 10 14 -4 10 0 12 14 9
14 -4 18 -1 13 10 -3 8 0 17 8 20 7 2 2 2 -10 0 -24 -4 -52 12 -52 28 0 5 14
9 30 9 27 0 30 3 30 29 0 17 -4 33 -10 36 -5 3 -10 -1 -10 -9 0 -20 -43 -21
-59 -2 -8 10 -9 20 -2 33 5 10 12 26 15 36 3 9 12 17 20 17 9 0 13 -6 10 -13
-6 -16 23 -44 33 -33 4 4 2 16 -5 26 -7 11 -12 27 -12 35 0 10 -10 15 -35 15
-34 0 -35 -1 -37 -42 -1 -39 -2 -40 -5 -10 -8 60 -4 62 104 61 65 -1 85 -4 58
-8z m-1711 -52 c31 -36 34 -74 7 -89 -21 -10 -54 -3 -46 10 9 15 -36 60 -60
60 -49 0 -57 -23 -49 -134 3 -56 11 -109 16 -118 11 -22 61 -24 77 -4 20 24
10 70 -16 74 -17 3 -23 10 -23 28 0 22 3 24 55 24 l55 0 0 -64 c0 -49 -5 -70
-23 -97 -21 -31 -27 -34 -71 -33 -60 1 -69 12 -89 107 -26 123 -31 215 -12
243 14 22 22 24 84 24 65 0 71 -2 95 -31z m130 -51 l-7 -83 64 77 c56 68 68
78 97 78 41 0 41 -17 1 -56 -17 -16 -48 -52 -70 -81 l-40 -51 42 -69 c23 -37
51 -83 61 -100 l20 -33 -36 0 c-30 0 -39 6 -64 43 -16 23 -37 57 -46 75 -9 18
-21 30 -26 27 -4 -3 -12 -34 -15 -70 -7 -60 -9 -65 -31 -65 -22 0 -24 4 -23
43 1 97 17 326 23 336 4 6 18 11 32 11 l24 0 -6 -82z"/>
<path d="M3530 7723 c-8 -4 -32 -17 -52 -30 -30 -18 -38 -20 -38 -8 0 18 -12
19 -28 3 -9 -9 -12 -9 -12 0 0 7 -15 12 -35 12 -28 0 -45 -9 -75 -37 -60 -59
-71 -113 -22 -113 9 0 12 -6 8 -16 -3 -9 -6 -20 -6 -26 0 -6 -9 -8 -20 -5 -13
3 -20 0 -20 -9 0 -8 10 -14 24 -14 18 0 29 -10 46 -42 22 -42 63 -88 79 -88 5
0 11 7 15 15 6 17 26 20 26 4 0 -5 -5 -7 -11 -4 -7 5 -9 -3 -7 -21 2 -24 8
-30 33 -32 17 -2 34 -8 40 -13 20 -19 175 0 175 22 0 4 11 10 25 13 19 5 31
-1 54 -24 35 -37 47 -27 41 35 -1 22 -4 49 -5 60 -4 50 -19 95 -36 111 -10 9
-19 23 -19 31 0 7 -4 13 -10 13 -5 0 -10 9 -10 20 0 11 -11 27 -25 36 -14 9
-25 22 -24 28 5 38 -4 57 -31 71 -30 15 -54 18 -80 8z"/>
<path d="M4023 7702 c-32 -10 -73 -72 -61 -92 8 -12 3 -26 -16 -54 -14 -21
-26 -51 -26 -65 0 -15 -5 -32 -10 -37 -11 -11 -20 -170 -12 -221 2 -17 12 -40
22 -51 29 -31 42 -62 32 -75 -7 -8 -5 -16 4 -25 12 -11 14 -9 14 7 0 11 4 22
9 26 12 7 31 -26 31 -54 0 -17 -5 -19 -33 -14 -23 3 -39 0 -50 -11 -8 -9 -18
-16 -21 -16 -3 0 -14 -8 -24 -18 -23 -23 -95 -28 -116 -7 -8 8 -19 15 -23 15
-5 0 -19 9 -32 21 -16 15 -22 17 -19 6 3 -15 0 -17 -23 -17 -21 0 -3 61 26 84
20 16 26 28 22 41 -7 16 -9 15 -30 -6 -46 -49 -51 -71 -35 -151 10 -51 18 -72
28 -70 18 4 31 -20 18 -35 -7 -9 -5 -20 8 -40 19 -30 32 -16 15 16 -6 11 -11
23 -11 26 0 14 56 -7 71 -27 10 -12 21 -18 28 -13 9 5 7 11 -6 20 -33 24 -2
30 37 7 21 -12 46 -22 54 -22 9 0 16 -9 16 -19 0 -26 -27 -30 -190 -27 -74 2
-144 0 -155 -4 -11 -4 -30 -3 -41 2 -15 7 -28 7 -40 -1 -15 -8 -15 -11 -4 -11
8 -1 40 -35 70 -76 30 -42 64 -81 75 -86 11 -6 22 -14 25 -17 3 -3 27 -16 54
-29 38 -18 58 -21 92 -16 24 3 44 2 44 -3 0 -13 59 -15 97 -2 18 6 33 15 33
21 0 14 31 37 50 38 8 0 21 9 28 20 7 12 17 18 22 15 5 -3 11 3 14 12 4 10 21
34 39 54 55 63 65 76 72 98 3 12 11 19 16 16 22 -14 6 48 -21 78 -16 19 -30
40 -30 45 0 6 -10 16 -21 23 -17 9 -23 8 -30 -2 -5 -9 -3 -17 6 -22 8 -4 15
-17 15 -28 0 -19 -1 -19 -25 -3 -14 9 -28 28 -31 43 -3 14 -9 37 -14 51 -4 14
-14 45 -21 70 -7 25 -21 56 -31 69 -20 26 -16 60 8 74 8 4 14 19 14 32 0 25
23 35 35 15 7 -12 48 -13 59 -3 4 4 21 8 38 9 35 2 107 23 125 37 7 5 17 6 22
3 6 -4 17 6 25 21 8 15 30 37 50 47 20 11 36 23 36 28 0 4 7 8 15 8 8 0 15 6
15 13 0 6 9 23 20 37 27 34 26 92 -2 116 -13 12 -18 13 -13 4 11 -19 -34 17
-54 43 -10 14 -21 17 -46 13 -23 -5 -38 -2 -49 9 -9 9 -20 14 -24 11 -5 -3
-28 2 -53 11 -48 16 -170 25 -206 15z m-345 -944 c8 -8 15 -8 27 2 12 10 18
10 30 0 11 -9 19 -10 26 -3 7 7 22 8 38 4 14 -5 43 -6 63 -3 29 3 39 0 44 -12
6 -16 8 -16 25 0 16 14 21 15 35 4 13 -11 17 -11 24 0 13 22 40 3 40 -28 0
-37 -8 -44 -33 -31 -12 7 -22 7 -26 2 -13 -20 -163 -34 -201 -20 -14 6 -36 9
-49 8 -13 -2 -28 3 -32 11 -7 10 -9 10 -9 1 0 -18 -16 -16 -40 4 -23 20 -27
53 -5 53 8 0 15 5 15 10 0 13 13 13 28 -2z"/>
</g>
</svg>
